<mxfile host="app.diagrams.net" agent="Mozilla/5.0 (Windows NT 10.0; Win64; x64) AppleWebKit/537.36 (KHTML, like Gecko) Chrome/127.0.0.0 Safari/537.36 Edg/127.0.0.0" version="24.7.6">
  <diagram name="Page-1" id="FOzo8cKF-CI9lw10j_Ww">
    <mxGraphModel dx="2276" dy="1857" grid="1" gridSize="10" guides="1" tooltips="1" connect="1" arrows="1" fold="1" page="1" pageScale="1" pageWidth="850" pageHeight="1100" math="0" shadow="0">
      <root>
        <mxCell id="0" />
        <mxCell id="1" parent="0" />
        <mxCell id="8IZuK-_9ymfgup93Q2rC-13" value="Controller Devices" style="rounded=1;whiteSpace=wrap;html=1;" vertex="1" parent="1">
          <mxGeometry x="-730" y="-490" width="120" height="60" as="geometry" />
        </mxCell>
        <mxCell id="8IZuK-_9ymfgup93Q2rC-14" value="Sensor Devices" style="rounded=1;whiteSpace=wrap;html=1;" vertex="1" parent="1">
          <mxGeometry x="-730" y="-400" width="120" height="60" as="geometry" />
        </mxCell>
        <mxCell id="8IZuK-_9ymfgup93Q2rC-16" value="" style="sketch=0;outlineConnect=0;fontColor=#232F3E;gradientColor=none;fillColor=#7AA116;strokeColor=none;dashed=0;verticalLabelPosition=bottom;verticalAlign=top;align=center;html=1;fontSize=12;fontStyle=0;aspect=fixed;pointerEvents=1;shape=mxgraph.aws4.iot_device_gateway;" vertex="1" parent="1">
          <mxGeometry x="-475" y="-460" width="78" height="73" as="geometry" />
        </mxCell>
        <mxCell id="8IZuK-_9ymfgup93Q2rC-21" value="" style="endArrow=classic;startArrow=classic;html=1;rounded=0;exitX=1;exitY=0.5;exitDx=0;exitDy=0;" edge="1" parent="1" source="8IZuK-_9ymfgup93Q2rC-13" target="8IZuK-_9ymfgup93Q2rC-16">
          <mxGeometry width="50" height="50" relative="1" as="geometry">
            <mxPoint x="-580" y="-470" as="sourcePoint" />
            <mxPoint x="-530" y="-520" as="targetPoint" />
          </mxGeometry>
        </mxCell>
        <mxCell id="8IZuK-_9ymfgup93Q2rC-22" value="" style="endArrow=classic;html=1;rounded=0;exitX=1;exitY=0.5;exitDx=0;exitDy=0;" edge="1" parent="1" source="8IZuK-_9ymfgup93Q2rC-14" target="8IZuK-_9ymfgup93Q2rC-16">
          <mxGeometry width="50" height="50" relative="1" as="geometry">
            <mxPoint x="-540" y="-337" as="sourcePoint" />
            <mxPoint x="-490" y="-387" as="targetPoint" />
          </mxGeometry>
        </mxCell>
        <mxCell id="8IZuK-_9ymfgup93Q2rC-31" style="edgeStyle=orthogonalEdgeStyle;rounded=0;orthogonalLoop=1;jettySize=auto;html=1;exitX=0.75;exitY=0;exitDx=0;exitDy=0;" edge="1" parent="1" source="8IZuK-_9ymfgup93Q2rC-23" target="8IZuK-_9ymfgup93Q2rC-30">
          <mxGeometry relative="1" as="geometry" />
        </mxCell>
        <mxCell id="8IZuK-_9ymfgup93Q2rC-33" style="edgeStyle=orthogonalEdgeStyle;rounded=0;orthogonalLoop=1;jettySize=auto;html=1;exitX=0.5;exitY=0;exitDx=0;exitDy=0;" edge="1" parent="1" source="8IZuK-_9ymfgup93Q2rC-23" target="8IZuK-_9ymfgup93Q2rC-32">
          <mxGeometry relative="1" as="geometry" />
        </mxCell>
        <mxCell id="8IZuK-_9ymfgup93Q2rC-23" value="" style="image;aspect=fixed;perimeter=ellipsePerimeter;html=1;align=center;shadow=0;dashed=0;spacingTop=3;image=img/lib/active_directory/web_server.svg;" vertex="1" parent="1">
          <mxGeometry x="-300" y="-448" width="40" height="50" as="geometry" />
        </mxCell>
        <mxCell id="8IZuK-_9ymfgup93Q2rC-30" value="" style="dashed=0;outlineConnect=0;html=1;align=center;labelPosition=center;verticalLabelPosition=bottom;verticalAlign=top;shape=mxgraph.webicons.mongodb;gradientColor=#DFDEDE" vertex="1" parent="1">
          <mxGeometry x="-170" y="-480" width="90" height="70" as="geometry" />
        </mxCell>
        <mxCell id="8IZuK-_9ymfgup93Q2rC-32" value="" style="image;aspect=fixed;html=1;points=[];align=center;fontSize=12;image=img/lib/azure2/databases/Azure_Database_MySQL_Server.svg;" vertex="1" parent="1">
          <mxGeometry x="-140" y="-600" width="48" height="64" as="geometry" />
        </mxCell>
        <mxCell id="8IZuK-_9ymfgup93Q2rC-34" value="" style="endArrow=classic;startArrow=classic;html=1;rounded=0;entryX=0;entryY=0.5;entryDx=0;entryDy=0;" edge="1" parent="1" source="8IZuK-_9ymfgup93Q2rC-16" target="8IZuK-_9ymfgup93Q2rC-23">
          <mxGeometry width="50" height="50" relative="1" as="geometry">
            <mxPoint x="-380" y="-240" as="sourcePoint" />
            <mxPoint x="-330" y="-290" as="targetPoint" />
          </mxGeometry>
        </mxCell>
        <mxCell id="8IZuK-_9ymfgup93Q2rC-35" value="" style="aspect=fixed;sketch=0;html=1;dashed=0;whitespace=wrap;verticalLabelPosition=bottom;verticalAlign=top;fillColor=#2875E2;strokeColor=#ffffff;points=[[0.005,0.63,0],[0.1,0.2,0],[0.9,0.2,0],[0.5,0,0],[0.995,0.63,0],[0.72,0.99,0],[0.5,1,0],[0.28,0.99,0]];shape=mxgraph.kubernetes.icon2;kubernetesLabel=1;prIcon=api" vertex="1" parent="1">
          <mxGeometry x="-305" y="-300" width="50" height="48" as="geometry" />
        </mxCell>
        <mxCell id="8IZuK-_9ymfgup93Q2rC-36" style="edgeStyle=orthogonalEdgeStyle;rounded=0;orthogonalLoop=1;jettySize=auto;html=1;exitX=0.5;exitY=1;exitDx=0;exitDy=0;entryX=0.5;entryY=0;entryDx=0;entryDy=0;entryPerimeter=0;" edge="1" parent="1" source="8IZuK-_9ymfgup93Q2rC-23" target="8IZuK-_9ymfgup93Q2rC-35">
          <mxGeometry relative="1" as="geometry" />
        </mxCell>
        <mxCell id="8IZuK-_9ymfgup93Q2rC-38" value="" style="verticalLabelPosition=bottom;html=1;verticalAlign=top;align=center;strokeColor=none;fillColor=#00BEF2;shape=mxgraph.azure.mobile_services;pointerEvents=1;" vertex="1" parent="1">
          <mxGeometry x="-112.5" y="-290" width="32.5" height="50" as="geometry" />
        </mxCell>
        <mxCell id="8IZuK-_9ymfgup93Q2rC-39" value="" style="endArrow=classic;startArrow=classic;html=1;rounded=0;entryX=0;entryY=0.5;entryDx=0;entryDy=0;entryPerimeter=0;exitX=0.995;exitY=0.63;exitDx=0;exitDy=0;exitPerimeter=0;" edge="1" parent="1" source="8IZuK-_9ymfgup93Q2rC-35" target="8IZuK-_9ymfgup93Q2rC-38">
          <mxGeometry width="50" height="50" relative="1" as="geometry">
            <mxPoint x="-380" y="-240" as="sourcePoint" />
            <mxPoint x="-330" y="-290" as="targetPoint" />
          </mxGeometry>
        </mxCell>
      </root>
    </mxGraphModel>
  </diagram>
</mxfile>
